<svg xmlns="http://www.w3.org/2000/svg" width="241.349" height="64" viewBox="0 0 241.349 64">
  <path id="Logo" d="M144.793,64c-7.3,0-13.48-3.92-16.943-10.755a21.942,21.942,0,0,1-3.938,4.583A23.125,23.125,0,0,1,118.86,61.2a26.329,26.329,0,0,1-5.981,2.084,31.2,31.2,0,0,1-6.726.713c-9.73,0-17.787-4.16-22.1-11.412C79.731,59.84,71.673,64,61.944,64A29.622,29.622,0,0,1,51.81,62.3a23.5,23.5,0,0,1-8.094-4.9,22.109,22.109,0,0,1-5.363-7.789,27.078,27.078,0,0,1-1.941-10.375,27.077,27.077,0,0,1,1.941-10.375,22.107,22.107,0,0,1,5.363-7.788,23.5,23.5,0,0,1,8.094-4.9,29.624,29.624,0,0,1,10.134-1.7c9.73,0,17.787,4.159,22.1,11.411,4.317-7.252,12.375-11.411,22.1-11.411a31.2,31.2,0,0,1,6.726.713,26.33,26.33,0,0,1,5.981,2.084,23.125,23.125,0,0,1,5.052,3.374,21.939,21.939,0,0,1,3.938,4.583c3.463-6.834,9.639-10.754,16.943-10.754a16.49,16.49,0,0,1,8.182,1.96,12.764,12.764,0,0,1,5.1,5.237V0h83.277V59.609a19.938,19.938,0,0,1-.326-4.018V38.523a19.774,19.774,0,0,0-1.339-7.907,9.1,9.1,0,0,0-3.545-4.267,10.733,10.733,0,0,0-5.7-1.422,13.9,13.9,0,0,0-7.949,2.51,27.534,27.534,0,0,0-4.686,4.435V6.186l-.084-.293-4.016,1.255c-.691.221-1.951.594-3.744,1.108-1.769.507-3.3.95-4.539,1.317V11.08c.318-.049.684-.1.983-.146a6.378,6.378,0,0,1,.9-.063c1.555,0,2.547.373,2.949,1.108a7.515,7.515,0,0,1,.607,3.451V51.062a11.506,11.506,0,0,0-2.891-4.48,24.236,24.236,0,0,0-5.57-4l-5.522-2.97a14.216,14.216,0,0,1-4.329-3.221,5.594,5.594,0,0,1-1.443-3.639,5.942,5.942,0,0,1,6.275-6.024,8.3,8.3,0,0,1,7.488,4.183,19.444,19.444,0,0,1,2.259,6.317h1.3l-.292-11.672h-1a1.77,1.77,0,0,1-.586.67,2.145,2.145,0,0,1-1.088.209,22.651,22.651,0,0,1-2.991-.837,16.42,16.42,0,0,0-4.873-.836,12.152,12.152,0,0,0-8.409,3.012,9.935,9.935,0,0,0-3.347,7.7,9.816,9.816,0,0,0,2.426,6.61,26.815,26.815,0,0,0,7.572,5.564l4.685,2.678A10.766,10.766,0,0,1,204.2,53.5a6.221,6.221,0,0,1,1.046,3.389,5.961,5.961,0,0,1-1.82,4.5,6.914,6.914,0,0,1-4.957,1.736A10.244,10.244,0,0,1,193.5,61.95a9.856,9.856,0,0,1-3.608-3.514,21.967,21.967,0,0,1-2.594-7.321h-1.381v11.2a3.388,3.388,0,0,1-1.16-.741c-.764-.805-1.151-2.818-1.151-5.982V25.554a2.269,2.269,0,0,0-.084-.627,5.479,5.479,0,0,0-1.506.5c-1.915.8-5.35,2.015-10.207,3.6l-1.8.586v1.3c1.394-.39,2.246-.615,2.531-.669a4.79,4.79,0,0,1,.9-.084,2.538,2.538,0,0,1,2.635,1.716,12.74,12.74,0,0,1,.377,3.765V55.591c0,3.248-.394,5.268-1.171,6s-2.679,1.25-5.648,1.527V63.4H158.072V56.8a12.765,12.765,0,0,1-5.1,5.237A16.49,16.49,0,0,1,144.793,64Zm-38.64-33.071a5.553,5.553,0,0,0-4.38,2A9.692,9.692,0,0,0,99.9,39.239a9.767,9.767,0,0,0,1.842,6.308,5.827,5.827,0,0,0,8.793,0,9.694,9.694,0,0,0,1.874-6.308,9.692,9.692,0,0,0-1.874-6.307A5.553,5.553,0,0,0,106.153,30.929Zm-44.209,0a5.553,5.553,0,0,0-4.38,2,9.692,9.692,0,0,0-1.874,6.307,9.767,9.767,0,0,0,1.842,6.308,5.827,5.827,0,0,0,8.793,0A9.694,9.694,0,0,0,68.2,39.239a9.692,9.692,0,0,0-1.874-6.307A5.553,5.553,0,0,0,61.944,30.929Zm89.189.171a6.586,6.586,0,0,0-4.991,2.078,8.753,8.753,0,0,0-2.035,6.061,8.754,8.754,0,0,0,2.035,6.062,7.033,7.033,0,0,0,9.982,0,8.754,8.754,0,0,0,2.035-6.062,8.753,8.753,0,0,0-2.035-6.061A6.586,6.586,0,0,0,151.133,31.1ZM179.34,5.892a4.152,4.152,0,0,0-3.1,1.3,4.313,4.313,0,0,0-1.255,3.1,4.244,4.244,0,0,0,1.255,3.075,4.367,4.367,0,0,0,6.17,0,4.209,4.209,0,0,0,1.275-3.075,4.258,4.258,0,0,0-1.275-3.116A4.209,4.209,0,0,0,179.34,5.892Zm48.8,57.508h-4.393v-.279c-2.359-.333-3.922-.9-4.643-1.673s-1.088-2.747-1.088-5.857V34.967c0-.472,1.027-1.5,3.054-3.054a10.313,10.313,0,0,1,6.316-2.343c2.5,0,4.223.845,5.125,2.51a13.836,13.836,0,0,1,1.359,6.568V55.591c0,3.054-.352,5.01-1.046,5.815s-2.27,1.381-4.685,1.715V63.4ZM19.02,63.4H0V2.741H42.838v15.08H19.02v8.4H36.155V40.524H19.02V63.4ZM206.2,62.978v0a12.177,12.177,0,0,0,1.4-1.026,10.138,10.138,0,0,0,3.214-4.725c-.11,2.127-.456,3.54-1.029,4.2A6.258,6.258,0,0,1,206.2,62.978Z" fill="#5f5f5f"/>
</svg>
